<mxfile host="app.diagrams.net" modified="2023-07-05T23:33:18.827Z" agent="Mozilla/5.0 (Windows NT 10.0; Win64; x64) AppleWebKit/537.36 (KHTML, like Gecko) Chrome/114.0.0.0 Safari/537.36" etag="wjxs2svpv8ftlrRbjPno" version="21.6.1" type="device">
  <diagram id="VedUil05Jrxe3jc2Dknq" name="Página-2">
    <mxGraphModel dx="1050" dy="523" grid="1" gridSize="10" guides="1" tooltips="1" connect="1" arrows="1" fold="1" page="1" pageScale="1" pageWidth="827" pageHeight="1169" math="0" shadow="0">
      <root>
        <mxCell id="0" />
        <mxCell id="1" parent="0" />
        <mxCell id="p5vQMufgLFbJGKLF2vut-1" value="" style="ellipse;html=1;shape=startState;fillColor=#000000;strokeColor=#ff0000;" vertex="1" parent="1">
          <mxGeometry x="370" y="30" width="30" height="30" as="geometry" />
        </mxCell>
        <mxCell id="p5vQMufgLFbJGKLF2vut-2" value="" style="edgeStyle=orthogonalEdgeStyle;html=1;verticalAlign=bottom;endArrow=open;endSize=8;strokeColor=#ff0000;rounded=0;" edge="1" source="p5vQMufgLFbJGKLF2vut-1" parent="1">
          <mxGeometry relative="1" as="geometry">
            <mxPoint x="385" y="120" as="targetPoint" />
          </mxGeometry>
        </mxCell>
        <mxCell id="p5vQMufgLFbJGKLF2vut-5" value="" style="edgeStyle=orthogonalEdgeStyle;rounded=0;orthogonalLoop=1;jettySize=auto;html=1;" edge="1" parent="1" source="p5vQMufgLFbJGKLF2vut-3" target="p5vQMufgLFbJGKLF2vut-4">
          <mxGeometry relative="1" as="geometry" />
        </mxCell>
        <mxCell id="p5vQMufgLFbJGKLF2vut-3" value="Obtener indicadores y evidencias&lt;br&gt;idIndicador=0, idEvidencia=1" style="rounded=1;whiteSpace=wrap;html=1;" vertex="1" parent="1">
          <mxGeometry x="285" y="120" width="200" height="60" as="geometry" />
        </mxCell>
        <mxCell id="p5vQMufgLFbJGKLF2vut-7" value="" style="edgeStyle=orthogonalEdgeStyle;rounded=0;orthogonalLoop=1;jettySize=auto;html=1;" edge="1" parent="1" source="p5vQMufgLFbJGKLF2vut-4" target="p5vQMufgLFbJGKLF2vut-6">
          <mxGeometry relative="1" as="geometry" />
        </mxCell>
        <mxCell id="p5vQMufgLFbJGKLF2vut-4" value="idIndicador=idIndicador+1" style="whiteSpace=wrap;html=1;rounded=1;" vertex="1" parent="1">
          <mxGeometry x="261" y="230" width="250" height="60" as="geometry" />
        </mxCell>
        <mxCell id="p5vQMufgLFbJGKLF2vut-11" value="" style="edgeStyle=orthogonalEdgeStyle;rounded=0;orthogonalLoop=1;jettySize=auto;html=1;" edge="1" parent="1" source="p5vQMufgLFbJGKLF2vut-6" target="p5vQMufgLFbJGKLF2vut-10">
          <mxGeometry relative="1" as="geometry" />
        </mxCell>
        <mxCell id="p5vQMufgLFbJGKLF2vut-6" value="Marcar o desmarcar evidencia" style="whiteSpace=wrap;html=1;rounded=1;" vertex="1" parent="1">
          <mxGeometry x="265" y="360" width="240" height="60" as="geometry" />
        </mxCell>
        <mxCell id="p5vQMufgLFbJGKLF2vut-13" style="edgeStyle=orthogonalEdgeStyle;rounded=0;orthogonalLoop=1;jettySize=auto;html=1;exitX=1;exitY=0.5;exitDx=0;exitDy=0;exitPerimeter=0;entryX=0.5;entryY=1;entryDx=0;entryDy=0;" edge="1" parent="1" source="p5vQMufgLFbJGKLF2vut-10" target="p5vQMufgLFbJGKLF2vut-12">
          <mxGeometry relative="1" as="geometry" />
        </mxCell>
        <mxCell id="p5vQMufgLFbJGKLF2vut-17" value="" style="edgeStyle=orthogonalEdgeStyle;rounded=0;orthogonalLoop=1;jettySize=auto;html=1;" edge="1" parent="1" source="p5vQMufgLFbJGKLF2vut-10" target="p5vQMufgLFbJGKLF2vut-16">
          <mxGeometry relative="1" as="geometry" />
        </mxCell>
        <mxCell id="p5vQMufgLFbJGKLF2vut-10" value="idEvidencia=4" style="strokeWidth=2;html=1;shape=mxgraph.flowchart.decision;whiteSpace=wrap;" vertex="1" parent="1">
          <mxGeometry x="310" y="530" width="150" height="100" as="geometry" />
        </mxCell>
        <mxCell id="p5vQMufgLFbJGKLF2vut-23" style="edgeStyle=orthogonalEdgeStyle;rounded=0;orthogonalLoop=1;jettySize=auto;html=1;" edge="1" parent="1" source="p5vQMufgLFbJGKLF2vut-12">
          <mxGeometry relative="1" as="geometry">
            <mxPoint x="510" y="390" as="targetPoint" />
          </mxGeometry>
        </mxCell>
        <mxCell id="p5vQMufgLFbJGKLF2vut-12" value="idEvidencia=&lt;br&gt;idEvidencia+1" style="whiteSpace=wrap;html=1;rounded=1;" vertex="1" parent="1">
          <mxGeometry x="580" y="345" width="90" height="90" as="geometry" />
        </mxCell>
        <mxCell id="p5vQMufgLFbJGKLF2vut-14" value="No" style="text;html=1;strokeColor=none;fillColor=none;align=center;verticalAlign=middle;whiteSpace=wrap;rounded=0;" vertex="1" parent="1">
          <mxGeometry x="510" y="490" width="60" height="30" as="geometry" />
        </mxCell>
        <mxCell id="p5vQMufgLFbJGKLF2vut-19" style="edgeStyle=orthogonalEdgeStyle;rounded=0;orthogonalLoop=1;jettySize=auto;html=1;exitX=1;exitY=0.5;exitDx=0;exitDy=0;exitPerimeter=0;" edge="1" parent="1" source="p5vQMufgLFbJGKLF2vut-16" target="p5vQMufgLFbJGKLF2vut-18">
          <mxGeometry relative="1" as="geometry" />
        </mxCell>
        <mxCell id="p5vQMufgLFbJGKLF2vut-22" value="" style="edgeStyle=orthogonalEdgeStyle;rounded=0;orthogonalLoop=1;jettySize=auto;html=1;" edge="1" parent="1" source="p5vQMufgLFbJGKLF2vut-16" target="p5vQMufgLFbJGKLF2vut-21">
          <mxGeometry relative="1" as="geometry" />
        </mxCell>
        <mxCell id="p5vQMufgLFbJGKLF2vut-16" value="idIndicador=68" style="strokeWidth=2;html=1;shape=mxgraph.flowchart.decision;whiteSpace=wrap;" vertex="1" parent="1">
          <mxGeometry x="310" y="750" width="150" height="100" as="geometry" />
        </mxCell>
        <mxCell id="p5vQMufgLFbJGKLF2vut-20" style="edgeStyle=orthogonalEdgeStyle;rounded=0;orthogonalLoop=1;jettySize=auto;html=1;entryX=1;entryY=0.5;entryDx=0;entryDy=0;" edge="1" parent="1" source="p5vQMufgLFbJGKLF2vut-18" target="p5vQMufgLFbJGKLF2vut-4">
          <mxGeometry relative="1" as="geometry">
            <mxPoint x="740" y="170" as="targetPoint" />
            <Array as="points">
              <mxPoint x="741" y="700" />
              <mxPoint x="741" y="260" />
            </Array>
          </mxGeometry>
        </mxCell>
        <mxCell id="p5vQMufgLFbJGKLF2vut-18" value="idEvidencia=1" style="whiteSpace=wrap;html=1;rounded=1;" vertex="1" parent="1">
          <mxGeometry x="680" y="755" width="90" height="90" as="geometry" />
        </mxCell>
        <mxCell id="p5vQMufgLFbJGKLF2vut-21" value="Cálculo de resultados" style="whiteSpace=wrap;html=1;strokeWidth=2;" vertex="1" parent="1">
          <mxGeometry x="325" y="920" width="120" height="60" as="geometry" />
        </mxCell>
        <mxCell id="p5vQMufgLFbJGKLF2vut-24" value="No" style="text;html=1;strokeColor=none;fillColor=none;align=center;verticalAlign=middle;whiteSpace=wrap;rounded=0;" vertex="1" parent="1">
          <mxGeometry x="540" y="755" width="60" height="30" as="geometry" />
        </mxCell>
        <mxCell id="p5vQMufgLFbJGKLF2vut-25" value="Sí" style="text;html=1;strokeColor=none;fillColor=none;align=center;verticalAlign=middle;whiteSpace=wrap;rounded=0;" vertex="1" parent="1">
          <mxGeometry x="384" y="670" width="60" height="30" as="geometry" />
        </mxCell>
        <mxCell id="p5vQMufgLFbJGKLF2vut-26" value="Sí" style="text;html=1;strokeColor=none;fillColor=none;align=center;verticalAlign=middle;whiteSpace=wrap;rounded=0;" vertex="1" parent="1">
          <mxGeometry x="384" y="860" width="60" height="30" as="geometry" />
        </mxCell>
      </root>
    </mxGraphModel>
  </diagram>
</mxfile>
